<svg width="690" height="370" viewBox="0 0 690 370" fill="none" xmlns="http://www.w3.org/2000/svg">
<path d="M96.75 161.25C94.6239 161.25 92.5454 161.88 90.7776 163.062C89.0098 164.243 87.6319 165.922 86.8183 167.886C86.0047 169.85 85.7918 172.012 86.2066 174.097C86.6213 176.183 87.6452 178.098 89.1486 179.601C90.652 181.105 92.5675 182.129 94.6528 182.543C96.7381 182.958 98.8995 182.745 100.864 181.932C102.828 181.118 104.507 179.74 105.688 177.972C106.87 176.205 107.5 174.126 107.5 172C107.5 169.149 106.367 166.415 104.351 164.399C102.335 162.383 99.6011 161.25 96.75 161.25ZM21.5 150.5C18.6489 150.5 15.9146 151.633 13.8986 153.649C11.8826 155.665 10.75 158.399 10.75 161.25V182.75C10.75 185.601 11.8826 188.335 13.8986 190.351C15.9146 192.367 18.6489 193.5 21.5 193.5C24.3511 193.5 27.0854 192.367 29.1014 190.351C31.1174 188.335 32.25 185.601 32.25 182.75V161.25C32.25 158.399 31.1174 155.665 29.1014 153.649C27.0854 151.633 24.3511 150.5 21.5 150.5ZM236.5 150.5C233.649 150.5 230.915 151.633 228.899 153.649C226.883 155.665 225.75 158.399 225.75 161.25V182.75C225.75 185.601 226.883 188.335 228.899 190.351C230.915 192.367 233.649 193.5 236.5 193.5C239.351 193.5 242.085 192.367 244.101 190.351C246.117 188.335 247.25 185.601 247.25 182.75V161.25C247.25 158.399 246.117 155.665 244.101 153.649C242.085 151.633 239.351 150.5 236.5 150.5ZM182.75 75.25H139.75V61.49C142.999 59.614 145.701 56.9203 147.587 53.6766C149.473 50.4328 150.477 46.752 150.5 43C150.5 37.2978 148.235 31.8292 144.203 27.7972C140.171 23.7652 134.702 21.5 129 21.5C123.298 21.5 117.829 23.7652 113.797 27.7972C109.765 31.8292 107.5 37.2978 107.5 43C107.523 46.752 108.527 50.4328 110.413 53.6766C112.299 56.9203 115.001 59.614 118.25 61.49V75.25H75.25C66.6968 75.25 58.4939 78.6478 52.4458 84.6958C46.3978 90.7439 43 98.9468 43 107.5V204.25C43 212.803 46.3978 221.006 52.4458 227.054C58.4939 233.102 66.6968 236.5 75.25 236.5H182.75C191.303 236.5 199.506 233.102 205.554 227.054C211.602 221.006 215 212.803 215 204.25V107.5C215 98.9468 211.602 90.7439 205.554 84.6958C199.506 78.6478 191.303 75.25 182.75 75.25ZM147.49 96.75L142.115 118.25H115.885L110.51 96.75H147.49ZM193.5 204.25C193.5 207.101 192.367 209.835 190.351 211.851C188.335 213.867 185.601 215 182.75 215H75.25C72.3989 215 69.6646 213.867 67.6486 211.851C65.6326 209.835 64.5 207.101 64.5 204.25V107.5C64.5 104.649 65.6326 101.915 67.6486 99.8986C69.6646 97.8826 72.3989 96.75 75.25 96.75H88.365L96.75 131.58C97.3386 133.965 98.7263 136.077 100.682 137.563C102.638 139.05 105.044 139.822 107.5 139.75H150.5C152.956 139.822 155.362 139.05 157.318 137.563C159.274 136.077 160.661 133.965 161.25 131.58L169.635 96.75H182.75C185.601 96.75 188.335 97.8826 190.351 99.8986C192.367 101.915 193.5 104.649 193.5 107.5V204.25ZM161.25 161.25C159.124 161.25 157.045 161.88 155.278 163.062C153.51 164.243 152.132 165.922 151.318 167.886C150.505 169.85 150.292 172.012 150.707 174.097C151.121 176.183 152.145 178.098 153.649 179.601C155.152 181.105 157.067 182.129 159.153 182.543C161.238 182.958 163.4 182.745 165.364 181.932C167.328 181.118 169.007 179.74 170.188 177.972C171.37 176.205 172 174.126 172 172C172 169.149 170.867 166.415 168.851 164.399C166.835 162.383 164.101 161.25 161.25 161.25Z" fill="url(#paint0_radial_1_15)"/>
<path d="M328.18 143.6C328.18 153.32 325.6 160.52 320.44 165.2C315.28 169.76 307.66 172.04 297.58 172.04H278.86V221H263.2V95H297.22C307.42 95 315.1 97.28 320.26 101.84C325.54 106.28 328.18 113.36 328.18 123.08V143.6ZM312.52 121.46C312.52 116.9 311.44 113.6 309.28 111.56C307.24 109.52 303.94 108.5 299.38 108.5H278.86V158.54H299.38C303.94 158.54 307.24 157.52 309.28 155.48C311.44 153.32 312.52 149.96 312.52 145.4V121.46ZM379.847 169.88L368.507 221H346.907L340.787 95H354.107L359.507 207.5L374.447 148.1H385.607L400.907 207.5L406.487 95H418.907L412.787 221H390.107L379.847 169.88ZM498.114 192.56C498.114 202.88 495.714 210.2 490.914 214.52C486.234 218.84 478.434 221 467.514 221H431.514V95H465.354C476.034 95 483.834 97.16 488.754 101.48C493.794 105.8 496.314 113 496.314 123.08V133.34C496.314 142.58 493.014 149.54 486.414 154.22C494.214 158.54 498.114 165.92 498.114 176.36V192.56ZM480.654 121.46C480.654 116.9 479.574 113.6 477.414 111.56C475.374 109.52 472.074 108.5 467.514 108.5H447.174V148.28H467.514C471.234 148.28 474.354 147.08 476.874 144.68C479.394 142.28 480.654 139.1 480.654 135.14V121.46ZM482.454 174.74C482.454 170.78 481.254 167.66 478.854 165.38C476.454 162.98 473.274 161.78 469.314 161.78H447.174V207.5H469.134C473.694 207.5 477.054 206.48 479.214 204.44C481.374 202.28 482.454 198.92 482.454 194.36V174.74ZM581.461 190.4C581.461 200.36 578.701 207.98 573.181 213.26C567.781 218.42 560.461 221 551.221 221H547.621C538.381 221 531.001 218.42 525.481 213.26C520.081 207.98 517.381 200.36 517.381 190.4V125.6C517.381 115.52 520.081 107.9 525.481 102.74C530.881 97.58 538.261 95 547.621 95H551.221C560.581 95 567.961 97.58 573.361 102.74C578.761 107.9 581.461 115.52 581.461 125.6V190.4ZM566.161 122.18C566.161 118.46 564.721 115.28 561.841 112.64C559.081 109.88 555.541 108.5 551.221 108.5H547.621C543.301 108.5 539.701 109.88 536.821 112.64C534.061 115.28 532.681 118.46 532.681 122.18V170.96L566.161 122.18ZM532.681 193.82C532.681 197.54 534.061 200.78 536.821 203.54C539.701 206.18 543.301 207.5 547.621 207.5H551.221C555.541 207.5 559.081 206.18 561.841 203.54C564.721 200.78 566.161 197.54 566.161 193.82V145.22L532.681 193.82ZM626.108 221V108.68H597.488V95H670.388V108.68H641.768V221H626.108Z" fill="url(#paint1_radial_1_15)"/>
<path d="M240.76 321.76L236.08 343H225.4L245.68 259H259.48L279.4 343H268.72L264.16 321.76H240.76ZM262.24 312.76L252.4 266.92L242.68 312.76H262.24ZM317.805 296.2V314.8H299.805V296.2H317.805ZM386.929 291.4C386.929 297.88 385.209 302.68 381.769 305.8C378.329 308.84 373.249 310.36 366.529 310.36H354.049V343H343.609V259H366.289C373.089 259 378.209 260.52 381.649 263.56C385.169 266.52 386.929 271.24 386.929 277.72V291.4ZM376.489 276.64C376.489 273.6 375.769 271.4 374.329 270.04C372.969 268.68 370.769 268 367.729 268H354.049V301.36H367.729C370.769 301.36 372.969 300.68 374.329 299.32C375.769 297.88 376.489 295.64 376.489 292.6V276.64ZM430.614 296.2V314.8H412.614V296.2H430.614ZM472.739 334.24V267.76H461.939V259H493.979V267.76H483.179V334.24H493.979V343H461.939V334.24H472.739Z" fill="url(#paint2_radial_1_15)"/>
<defs>
<radialGradient id="paint0_radial_1_15" cx="0" cy="0" r="1" gradientUnits="userSpaceOnUse" gradientTransform="translate(129 129) rotate(90) scale(107.5 118.25)">
<stop stop-color="#6EB1FF"/>
<stop offset="1" stop-color="#D16FFE"/>
</radialGradient>
<radialGradient id="paint1_radial_1_15" cx="0" cy="0" r="1" gradientUnits="userSpaceOnUse" gradientTransform="translate(468.5 145) rotate(90) scale(83 221.5)">
<stop stop-color="#6EB1FF"/>
<stop offset="1" stop-color="#D16FFE"/>
</radialGradient>
<radialGradient id="paint2_radial_1_15" cx="0" cy="0" r="1" gradientUnits="userSpaceOnUse" gradientTransform="translate(370 303.5) rotate(90) scale(66.5 150)">
<stop stop-color="#6EB1FF"/>
<stop offset="1" stop-color="#D16FFE"/>
</radialGradient>
</defs>
</svg>
